<svg width="16" height="17" viewBox="0 0 16 17" fill="none" xmlns="http://www.w3.org/2000/svg">
<g clip-path="url(#clip0_468_308)">
<path fill-rule="evenodd" clip-rule="evenodd" d="M6.35008 3.51673C6.78767 3.07915 7.38116 2.83331 8 2.83331C8.61884 2.83331 9.21233 3.07915 9.64992 3.51673C10.0875 3.95432 10.3333 4.54781 10.3333 5.16665V6.83331H5.66667V5.16665C5.66667 4.54781 5.9125 3.95432 6.35008 3.51673ZM3.66667 6.83331V5.16665C3.66667 4.01737 4.12321 2.91517 4.93587 2.10252C5.74853 1.28986 6.85073 0.833313 8 0.833313C9.14927 0.833313 10.2515 1.28986 11.0641 2.10252C11.8768 2.91517 12.3333 4.01737 12.3333 5.16665V6.83331H12.6667C13.9553 6.83331 15 7.87798 15 9.16665V13.8333C15 15.122 13.9553 16.1666 12.6667 16.1666H3.33333C2.04467 16.1666 1 15.122 1 13.8333V9.16665C1 7.87798 2.04467 6.83331 3.33333 6.83331H3.66667ZM11.3333 8.83331H4.66667H3.33333C3.14924 8.83331 3 8.98255 3 9.16665V13.8333C3 14.0174 3.14924 14.1666 3.33333 14.1666H12.6667C12.8508 14.1666 13 14.0174 13 13.8333V9.16665C13 8.98255 12.8508 8.83331 12.6667 8.83331H11.3333Z" fill="#767676"/>
</g>
<defs>
<clipPath id="clip0_468_308">
<rect width="16" height="16" fill="white" transform="translate(0 0.5)"/>
</clipPath>
</defs>
</svg>
